<svg width="73" height="60" viewBox="0 0 73 60" fill="none" xmlns="http://www.w3.org/2000/svg">
<path d="M11.8243 23.3552H25.0599M48.3059 23.3552H61.5939H48.3059Z" stroke="#0079F8" stroke-width="3" stroke-miterlimit="10"/>
<path d="M49.3534 9.76364C55.1754 10.4443 56.8403 11.46 56.945 11.5228L57.123 11.638L57.3115 11.7218C58.3838 12.2459 59.2154 13.1598 59.6361 14.2767C60.5825 16.6817 61.1785 19.2101 61.4058 21.7846L61.5942 23.5333L63.1963 24.2139L63.6675 24.4338C65.8231 25.3414 67.6658 26.8603 68.9684 28.8029C70.2709 30.7455 70.9762 33.0269 70.9974 35.3657V35.5542C71.0879 39.5977 70.1473 43.5977 68.2644 47.1772L68.0026 47.6903L67.5 53.795L67.3639 54.6432C67.1656 55.5693 66.663 56.4024 65.9361 57.0097C65.2093 57.617 64.3001 57.9635 63.3534 57.994H60.2958C59.4904 57.9298 58.7408 57.5577 58.2025 56.9552C57.6643 56.3526 57.379 55.5658 57.4058 54.7584V48.4756H15.9084V54.7584C15.9354 55.159 15.8826 55.561 15.7532 55.9411C15.6237 56.3212 15.4202 56.6718 15.1543 56.9727C14.8885 57.2736 14.5656 57.5188 14.2044 57.6941C13.8431 57.8694 13.4507 57.9713 13.0498 57.994H9.99221C9.066 57.9695 8.17402 57.6387 7.45591 57.0532C6.7378 56.4677 6.23409 55.6607 6.02363 54.7584L5.79326 53.0411L5.31159 47.6275L5.04981 47.1458C3.31619 43.5281 2.42137 39.5658 2.43201 35.5542C2.43419 33.2063 3.11679 30.9093 4.39722 28.9413C5.67765 26.9733 7.50101 25.4185 9.64666 24.4652L11.7409 23.5751L11.8875 21.8055C12.1318 19.2269 12.6909 16.688 13.5524 14.2453C13.8905 13.3882 14.4596 12.6415 15.1964 12.0882L15.3953 11.9521L15.6571 11.816L15.7828 11.7636L15.9084 11.7008C16.5289 11.4517 17.1656 11.2452 17.8142 11.083C19.8324 10.5359 21.8862 10.13 23.9608 9.86835" stroke="#0079F8" stroke-width="3" stroke-miterlimit="10"/>
<path d="M12.9342 40.2976C15.4267 40.2976 17.4473 38.277 17.4473 35.7845C17.4473 33.292 15.4267 31.2715 12.9342 31.2715C10.4417 31.2715 8.42114 33.292 8.42114 35.7845C8.42114 38.277 10.4417 40.2976 12.9342 40.2976Z" stroke="#0079F8" stroke-width="3" stroke-miterlimit="10"/>
<path d="M59.5525 40.2976C62.045 40.2976 64.0656 38.277 64.0656 35.7845C64.0656 33.292 62.045 31.2715 59.5525 31.2715C57.06 31.2715 55.0394 33.292 55.0394 35.7845C55.0394 38.277 57.06 40.2976 59.5525 40.2976Z" stroke="#0079F8" stroke-width="3" stroke-miterlimit="10"/>
<path d="M24.5891 36.1824C24.5891 36.1824 34.6729 42.0149 47.898 35.7845" stroke="#0079F8" stroke-width="3" stroke-miterlimit="10"/>
<path d="M49.3537 22.6432L36.6836 30.6851L24.0134 22.6432V2.2139H49.3537V22.6432Z" stroke="#FFC826" stroke-width="3" stroke-miterlimit="10" stroke-linecap="square"/>
<path d="M29.5629 11.0935L36.1598 17.6903L52.4111 1.42856" stroke="#0079F8" stroke-width="4" stroke-miterlimit="10"/>
</svg>
