<svg width="72" height="60" viewBox="0 0 72 60" fill="none" xmlns="http://www.w3.org/2000/svg">
<path d="M70.2857 57.5341H1.71428V20.0168L36.0052 2.57144L70.2857 20.0168V57.5341Z" stroke="#0079F8" stroke-width="3" stroke-miterlimit="10" stroke-linecap="round"/>
<path d="M54.8049 47.555H17.1945V56.3655H54.8049V47.555Z" fill="#D1F2FE"/>
<path d="M19.491 22.933H52.6237" stroke="#FFC826" stroke-width="3" stroke-miterlimit="10" stroke-linecap="square"/>
<path d="M18.4569 22.933L24.1341 28.6205" stroke="#FFC826" stroke-width="3" stroke-miterlimit="10" stroke-linecap="square"/>
<path d="M24.1341 17.2557L18.4569 22.933" stroke="#FFC826" stroke-width="3" stroke-miterlimit="10" stroke-linecap="square"/>
<path d="M53.6576 22.933L47.9803 17.2557" stroke="#FFC826" stroke-width="3" stroke-miterlimit="10" stroke-linecap="square"/>
<path d="M47.9803 28.6205L53.6576 22.933" stroke="#FFC826" stroke-width="3" stroke-miterlimit="10" stroke-linecap="square"/>
<path d="M19.3148 34.8251H52.6853C53.1194 34.8224 53.5498 34.9054 53.9517 35.0693C54.3536 35.2332 54.7193 35.4748 55.0277 35.7803C55.336 36.0858 55.5811 36.4492 55.7488 36.8496C55.9165 37.25 56.0035 37.6795 56.0048 38.1136V57.5341H16.016V38.1136C16.0188 37.2405 16.3675 36.4041 16.9859 35.7877C17.6042 35.1713 18.4417 34.8251 19.3148 34.8251Z" stroke="#0079F8" stroke-width="3" stroke-miterlimit="10" stroke-linecap="round"/>
</svg>
