<svg width="76" height="76" viewBox="0 0 76 76" fill="none" xmlns="http://www.w3.org/2000/svg">
<path d="M58.832 68.4687V63.2015" stroke="#FFBD00" stroke-width="2" stroke-miterlimit="10"/>
<path d="M58.727 58.9878C58.2003 53.7206 53.6705 49.5069 48.298 49.5069H21.9621C16.1682 49.5069 11.4277 44.7664 11.4277 38.9725C11.4277 33.1786 16.1682 29.4916 21.9621 29.4916H35.6567C40.3972 29.4916 44.4003 26.3313 45.7697 22.1176" stroke="#FFBD00" stroke-width="2" stroke-miterlimit="10" stroke-dasharray="10.01 10.01"/>
<path d="M46.1914 20.0107C46.1914 19.6947 46.1914 19.2733 46.1914 18.9573V14.7435" stroke="#FFBD00" stroke-width="2" stroke-miterlimit="10"/>
<path d="M62.7298 37.1817L58.3053 39.1832L58.8321 34.232L55.5664 30.545L60.4122 29.3862L62.7298 25.2778L65.0473 29.3862L69.9985 30.545L66.6275 34.232L67.1542 39.1832L62.7298 37.1817Z" stroke="#0079F8" stroke-width="2" stroke-miterlimit="10" stroke-linecap="round"/>
<path d="M34.3928 7.89613L33.234 10.8457C33.1287 10.9511 33.234 11.1618 33.3394 11.2671L35.1302 13.9007C35.3409 14.2167 35.1302 14.6381 34.7088 14.6381L31.5485 14.4274C31.3378 14.4274 31.2325 14.5328 31.1272 14.6381L29.231 17.1664C29.0203 17.4824 28.4936 17.377 28.3882 16.9557L27.5455 13.9007C27.5455 13.7954 27.4401 13.5847 27.2295 13.5847L24.2798 12.5312C23.8585 12.4259 23.8585 11.8992 24.1745 11.6885L26.8081 10.003C26.9134 9.89765 27.0188 9.79231 27.0188 9.58162L27.1241 6.42132C27.1241 5.99994 27.6508 5.78926 27.9669 6.10529L30.3898 8.10681C30.4951 8.21216 30.7058 8.21216 30.8111 8.21216L33.8661 7.36941C34.1821 7.15872 34.6035 7.5801 34.3928 7.89613Z" fill="#D1F2FE"/>
<path d="M46.0859 62.5695L45.2432 64.7817C45.2432 64.887 45.2432 64.9924 45.2432 65.0977L46.6127 66.9939C46.8233 67.2046 46.6126 67.626 46.2966 67.5206L43.9791 67.4153C43.8737 67.4153 43.7684 67.4153 43.663 67.5206L42.1882 69.4168C41.9775 69.6275 41.6615 69.6275 41.5562 69.3115L40.9241 67.0993C40.9241 66.9939 40.8188 66.8886 40.7134 66.8886L38.5012 66.0458C38.1852 65.9405 38.1852 65.5191 38.3959 65.4138L40.3974 64.1496C40.5027 64.0443 40.6081 63.939 40.6081 63.8336L40.7134 61.5161C40.7134 61.2 41.0294 61.0947 41.3455 61.2L43.1363 62.6748C43.2417 62.7802 43.347 62.7802 43.4523 62.7802L45.6646 62.1481C45.8752 62.0428 46.1913 62.2535 46.0859 62.5695Z" fill="#D1F2FE"/>
<path d="M51.4583 68.4687V61.0947C51.4583 59.1985 49.1407 56.8809 47.2445 56.8809H20.9087C11.2171 56.8809 4.05371 49.7176 4.05371 40.026C4.05371 30.3344 12.2705 22.1176 21.9621 22.1176H35.6568C37.5529 22.1176 38.8171 20.8535 38.8171 18.9573V14.7435" stroke="#0079F8" stroke-width="2" stroke-miterlimit="10"/>
<path d="M53.5653 14.7435V18.9573C53.5653 28.6489 45.3486 36.8657 35.6569 36.8657H21.9623C20.0661 36.8657 18.1699 37.9191 18.1699 39.8153C18.1699 41.7115 19.9608 43.1863 21.9623 43.1863H48.2982C57.9898 43.1863 65.6798 51.087 66.2066 60.7786V68.4687" stroke="#0079F8" stroke-width="2" stroke-miterlimit="10"/>
</svg>
