<svg width="76" height="76" viewBox="0 0 76 76" fill="none" xmlns="http://www.w3.org/2000/svg">
<path d="M37.448 44.6094L28.2844 48.9338L29.314 38.5346L22.5186 30.9154L32.7118 28.5473L37.448 20.0015L42.2872 28.5473L52.4805 30.9154L45.685 38.5346L46.7146 48.9338L37.448 44.6094Z" stroke="#FFBD00" stroke-width="2" stroke-miterlimit="10" stroke-linejoin="round"/>
<path d="M32.6095 58.2002C32.6095 58.2002 17.8859 54.4936 14.3852 38.7404C13.4585 34.416 13.7674 30.1946 14.797 26.385" stroke="#0079F8" stroke-width="2" stroke-miterlimit="10"/>
<path d="M21.0425 21.6932C22.5757 18.3927 22.2718 14.9986 20.3637 14.1122C18.4556 13.2258 15.6659 15.1828 14.1326 18.4833C12.5994 21.7838 12.9033 25.1779 14.8114 26.0643C16.7195 26.9507 19.5092 24.9937 21.0425 21.6932Z" stroke="#0079F8" stroke-width="2" stroke-miterlimit="10" stroke-linecap="round"/>
<path d="M21.004 61.1726C24.1218 59.2955 25.7695 56.3126 24.6843 54.5101C23.599 52.7076 20.1918 52.7681 17.074 54.6453C13.9562 56.5225 12.3085 59.5054 13.3937 61.3079C14.4789 63.1103 17.8862 63.0498 21.004 61.1726Z" stroke="#0079F8" stroke-width="2" stroke-miterlimit="10" stroke-linecap="round"/>
<path d="M13.7271 35.6531C14.7056 33.7907 12.8873 30.9087 9.66582 29.2161C6.4443 27.5234 3.03946 27.6611 2.0609 29.5235C1.08234 31.3859 2.90062 34.2679 6.12214 35.9606C9.34366 37.6532 12.7485 37.5156 13.7271 35.6531Z" stroke="#0079F8" stroke-width="2" stroke-miterlimit="10" stroke-linecap="round"/>
<path d="M12.0421 50.3239C15.1599 48.4467 16.8076 45.4638 15.7223 43.6613C14.6371 41.8588 11.2299 41.9194 8.11208 43.7965C4.99427 45.6737 3.34655 48.6566 4.43178 50.4591C5.51702 52.2616 8.92425 52.2011 12.0421 50.3239Z" stroke="#0079F8" stroke-width="2" stroke-miterlimit="10" stroke-linecap="round"/>
<path d="M42.3906 58.2002C42.3906 58.2002 57.1142 54.4936 60.6149 38.7404C61.5415 34.416 61.2327 30.1946 60.203 26.385" stroke="#0079F8" stroke-width="2" stroke-miterlimit="10"/>
<path d="M60.2045 26.0778C62.1126 25.1914 62.4165 21.7972 60.8833 18.4967C59.35 15.1962 56.5603 13.2392 54.6522 14.1256C52.7441 15.012 52.4402 18.4062 53.9734 21.7067C55.5067 25.0072 58.2965 26.9642 60.2045 26.0778Z" stroke="#0079F8" stroke-width="2" stroke-miterlimit="10" stroke-linecap="round"/>
<path d="M61.571 61.3202C62.6562 59.5178 61.0085 56.5348 57.8907 54.6577C54.7729 52.7805 51.3656 52.72 50.2804 54.5225C49.1952 56.3249 50.8429 59.3079 53.9607 61.185C57.0785 63.0622 60.4857 63.1227 61.571 61.3202Z" stroke="#0079F8" stroke-width="2" stroke-miterlimit="10" stroke-linecap="round"/>
<path d="M68.8592 35.9231C72.0807 34.2305 73.899 31.3485 72.9204 29.486C71.9419 27.6236 68.537 27.486 65.3155 29.1786C62.094 30.8712 60.2757 33.7532 61.2543 35.6157C62.2328 37.4781 65.6377 37.6157 68.8592 35.9231Z" stroke="#0079F8" stroke-width="2" stroke-miterlimit="10" stroke-linecap="round"/>
<path d="M70.6266 50.4758C71.7119 48.6733 70.0641 45.6903 66.9463 43.8132C63.8285 41.936 60.4213 41.8755 59.3361 43.678C58.2508 45.4805 59.8986 48.4634 63.0164 50.3405C66.1342 52.2177 69.5414 52.2782 70.6266 50.4758Z" stroke="#0079F8" stroke-width="2" stroke-miterlimit="10" stroke-linecap="round"/>
</svg>
