<svg width="76" height="76" viewBox="0 0 76 76" fill="none" xmlns="http://www.w3.org/2000/svg">
<path d="M62.3603 53.6912C66.5206 53.6912 69.9706 57.1412 69.9706 61.3014C69.9706 65.4617 66.5206 68.9117 62.3603 68.9117H12.6397C8.47941 68.9117 5.02941 65.4617 5.02941 61.3014C5.02941 57.1412 8.47941 53.6912 12.6397 53.6912H62.3603ZM62.3603 51.6617H12.6397C7.36324 51.6617 3 56.025 3 61.3014C3 66.5779 7.36324 70.9412 12.6397 70.9412H62.3603C67.6368 70.9412 72 66.5779 72 61.3014C72 56.025 67.6368 51.6617 62.3603 51.6617Z" fill="#0079F8"/>
<path d="M30.3972 15.1323C30.3972 15.1323 22.7869 21.7279 17.2061 26.2941" stroke="#0079F8" stroke-width="2" stroke-miterlimit="10"/>
<path d="M13.1475 35.4265C13.1475 41.7177 13.1475 51.6618 13.1475 51.6618" stroke="#0079F8" stroke-width="2" stroke-miterlimit="10" stroke-linecap="round"/>
<path d="M12.9438 34.5132H13.3497C15.9879 34.5132 18.2203 32.3823 18.2203 29.6426V29.1352C18.2203 26.497 16.0894 24.2646 13.3497 24.2646H12.9438C10.2041 24.2646 8.07324 26.3955 8.07324 29.1352V29.6426C8.07324 32.2808 10.2041 34.5132 12.9438 34.5132Z" stroke="#0079F8" stroke-width="2" stroke-miterlimit="10"/>
<path d="M15.6834 65.8677C18.2052 65.8677 20.2495 63.8234 20.2495 61.3015C20.2495 58.7797 18.2052 56.7354 15.6834 56.7354C13.1615 56.7354 11.1172 58.7797 11.1172 61.3015C11.1172 63.8234 13.1615 65.8677 15.6834 65.8677Z" fill="#D1F2FE"/>
<path d="M29.8894 65.8677C32.4112 65.8677 34.4556 63.8234 34.4556 61.3015C34.4556 58.7797 32.4112 56.7354 29.8894 56.7354C27.3676 56.7354 25.3232 58.7797 25.3232 61.3015C25.3232 63.8234 27.3676 65.8677 29.8894 65.8677Z" fill="#D1F2FE"/>
<path d="M45.1101 65.8677C47.632 65.8677 49.6763 63.8234 49.6763 61.3015C49.6763 58.7797 47.632 56.7354 45.1101 56.7354C42.5883 56.7354 40.5439 58.7797 40.5439 61.3015C40.5439 63.8234 42.5883 65.8677 45.1101 65.8677Z" fill="#D1F2FE"/>
<path d="M59.3162 65.8677C61.838 65.8677 63.8824 63.8234 63.8824 61.3015C63.8824 58.7797 61.838 56.7354 59.3162 56.7354C56.7943 56.7354 54.75 58.7797 54.75 61.3015C54.75 63.8234 56.7943 65.8677 59.3162 65.8677Z" fill="#D1F2FE"/>
<path d="M63.8824 43.5441H21.2648C19.3368 43.5441 19.3368 41.2103 20.25 39.4853L23.2942 34.4118C24.0045 33.0927 25.3236 31.875 26.8456 31.3677H62.8677C64.4912 31.3677 65.9118 32.6868 65.9118 34.3103V41.2103C65.9118 42.5294 65.2015 43.5441 63.8824 43.5441Z" stroke="#0079F8" stroke-width="2" stroke-miterlimit="10" stroke-linecap="round"/>
<path d="M31.4121 31.3677L40.3415 23.9604C41.6606 23.0471 42.9798 22.2354 44.6033 22.2354H52.7209C53.7356 22.2354 55.7651 23.2501 56.7798 25.2795L60.8386 31.3677H31.4121Z" stroke="#0079F8" stroke-width="2" stroke-miterlimit="10" stroke-linecap="round"/>
<path d="M30.3968 48.6178C33.1988 48.6178 35.4703 46.3463 35.4703 43.5442C35.4703 40.7422 33.1988 38.4707 30.3968 38.4707C27.5947 38.4707 25.3232 40.7422 25.3232 43.5442C25.3232 46.3463 27.5947 48.6178 30.3968 48.6178Z" fill="white" stroke="#FFBD00" stroke-width="2" stroke-miterlimit="10" stroke-linecap="square"/>
<path d="M53.7356 48.6178C56.5377 48.6178 58.8092 46.3463 58.8092 43.5442C58.8092 40.7422 56.5377 38.4707 53.7356 38.4707C50.9336 38.4707 48.6621 40.7422 48.6621 43.5442C48.6621 46.3463 50.9336 48.6178 53.7356 48.6178Z" fill="white" stroke="#FFBD00" stroke-width="2" stroke-miterlimit="10" stroke-linecap="square"/>
<path d="M48.6621 22.2354V31.3677" stroke="#0079F8" stroke-width="2" stroke-miterlimit="10" stroke-linecap="round"/>
<path d="M34.4563 6C37.2975 6 39.5299 8.23235 39.5299 11.0735V16.1471H34.4563C31.6152 16.1471 29.3828 13.9147 29.3828 11.0735C29.3828 8.23235 31.6152 6 34.4563 6Z" stroke="#0079F8" stroke-width="2" stroke-miterlimit="10" stroke-linecap="square"/>
</svg>
