<svg width="72" height="54" viewBox="0 0 72 54" fill="none" xmlns="http://www.w3.org/2000/svg">
<path d="M61.0508 37.1014C62.8555 37.1693 64.5629 37.9108 65.8149 39.1704C67.0669 40.43 67.7662 42.1099 67.7662 43.8576C67.7662 45.6054 67.0669 47.2852 65.8149 48.5448C64.5629 49.8044 62.8555 50.5459 61.0508 50.6138H10.4687C8.66407 50.5459 6.95669 49.8044 5.70469 48.5448C4.45269 47.2852 3.75335 45.6054 3.75335 43.8576C3.75335 42.1099 4.45269 40.43 5.70469 39.1704C6.95669 37.9108 8.66407 37.1693 10.4687 37.1014H61.0508ZM61.0508 34.042H10.4687C9.1339 34.0366 7.81112 34.2864 6.57632 34.7771C5.34151 35.2677 4.21898 35.9895 3.27316 36.901C2.32733 37.8125 1.57684 38.8958 1.06475 40.0887C0.552655 41.2817 0.289051 42.5607 0.289063 43.8525H0.289063C0.289061 46.4553 1.35678 48.9517 3.25763 50.7932C5.15848 52.6346 7.73696 53.6705 10.4266 53.6732H61.0087C62.3409 53.6732 63.66 53.4191 64.8906 52.9254C66.1212 52.4318 67.2392 51.7082 68.1807 50.7962C69.1222 49.8841 69.8687 48.8014 70.3775 47.6099C70.8864 46.4185 71.1476 45.1417 71.1462 43.8525C71.1462 41.2506 70.0781 38.7553 68.177 36.9154C66.2758 35.0756 63.6973 34.042 61.0087 34.042H61.0508Z" fill="#0079F8"/>
<path d="M61.3458 47.6971C63.5399 47.6971 65.3186 45.9758 65.3186 43.8525C65.3186 41.7291 63.5399 40.0078 61.3458 40.0078C59.1517 40.0078 57.373 41.7291 57.373 43.8525C57.373 45.9758 59.1517 47.6971 61.3458 47.6971Z" fill="#D1F2FE"/>
<path d="M10.3109 47.6971C12.505 47.6971 14.2837 45.9758 14.2837 43.8525C14.2837 41.7291 12.505 40.0078 10.3109 40.0078C8.11676 40.0078 6.33807 41.7291 6.33807 43.8525C6.33807 45.9758 8.11676 47.6971 10.3109 47.6971Z" fill="#D1F2FE"/>
<path d="M35.7389 47.6971C37.933 47.6971 39.7117 45.9758 39.7117 43.8525C39.7117 41.7291 37.933 40.0078 35.7389 40.0078C33.5447 40.0078 31.7661 41.7291 31.7661 43.8525C31.7661 45.9758 33.5447 47.6971 35.7389 47.6971Z" fill="#D1F2FE"/>
<path d="M48.5419 47.6971C50.736 47.6971 52.5147 45.9758 52.5147 43.8525C52.5147 41.7291 50.736 40.0078 48.5419 40.0078C46.3478 40.0078 44.5691 41.7291 44.5691 43.8525C44.5691 45.9758 46.3478 47.6971 48.5419 47.6971Z" fill="#D1F2FE"/>
<path d="M23.0294 47.6971C25.2235 47.6971 27.0022 45.9758 27.0022 43.8525C27.0022 41.7291 25.2235 40.0078 23.0294 40.0078C20.8353 40.0078 19.0566 41.7291 19.0566 43.8525C19.0566 45.9758 20.8353 47.6971 23.0294 47.6971Z" fill="#D1F2FE"/>
<path d="M69.4319 23.4259L61.8945 23.4259" stroke="#0079F8" stroke-width="3.18" stroke-miterlimit="10" stroke-linecap="square"/>
<path d="M47.9215 23.4259H39.4069V14.0539C39.4069 13.3155 39.71 12.6074 40.2495 12.0853C40.789 11.5631 41.5207 11.2698 42.2837 11.2698H49.0807L58.9653 1.71429H69.432" stroke="#0079F8" stroke-width="3" stroke-miterlimit="10" stroke-linecap="square"/>
<path d="M29.7108 23.4259H22.7768" stroke="#0079F8" stroke-width="3" stroke-miterlimit="10" stroke-linecap="round"/>
<path d="M23.4721 23.4259H29.7949V20.6317C29.7949 19.4014 29.5443 18.1832 29.0575 17.0467C28.5707 15.9102 27.8572 14.8777 26.9578 14.0083C26.0584 13.1388 24.9907 12.4494 23.8158 11.9796C22.6409 11.5097 21.3818 11.2685 20.1105 11.2699L13.1976 4.65137C12.2283 3.71618 11.0777 2.97534 9.81186 2.47134C8.54603 1.96734 7.18985 1.71009 5.82108 1.71435H1.97473" stroke="#0079F8" stroke-width="3" stroke-miterlimit="10" stroke-linecap="square"/>
<path d="M8.18158 23.4259H1.97473" stroke="#0079F8" stroke-width="3" stroke-miterlimit="10" stroke-linecap="square"/>
<path d="M1.97473 11.3311H20.0262" stroke="#0079F8" stroke-width="3" stroke-miterlimit="10" stroke-linecap="square"/>
<path d="M15.4528 19.4999C16.2737 19.5103 17.0733 19.7633 17.7508 20.227C18.4284 20.6907 18.9537 21.3444 19.2607 22.1059C19.5676 22.8674 19.6426 23.7027 19.4761 24.5067C19.3096 25.3107 18.909 26.0475 18.3249 26.6244C17.7407 27.2014 16.999 27.5926 16.193 27.749C15.387 27.9054 14.5528 27.82 13.7953 27.5034C13.0377 27.1868 12.3907 26.6533 11.9356 25.9699C11.4805 25.2865 11.2377 24.4838 11.2376 23.6628C11.2515 22.5539 11.7017 21.4952 12.4907 20.716C13.2797 19.9368 14.3439 19.4999 15.4528 19.4999ZM15.4528 16.3383C13.9939 16.3383 12.5677 16.771 11.3546 17.5816C10.1415 18.3922 9.19606 19.5444 8.63774 20.8923C8.07943 22.2403 7.93335 23.7236 8.21797 25.1547C8.5026 26.5857 9.20515 27.9002 10.2368 28.9319C11.2684 29.9636 12.5828 30.6662 14.0137 30.9509C15.4446 31.2355 16.9278 31.0894 18.2757 30.531C19.6236 29.9727 20.7756 29.0271 21.5862 27.814C22.3967 26.6008 22.8294 25.1745 22.8294 23.7155C22.8294 21.7729 22.0577 19.9099 20.6842 18.5363C19.3108 17.1627 17.4479 16.391 15.5055 16.391L15.4528 16.3383Z" fill="#FFBD00"/>
<path d="M47.616 11.2698H69.4319" stroke="#0079F8" stroke-width="3" stroke-miterlimit="10" stroke-linecap="square"/>
<path d="M54.5805 19.4999C55.4038 19.4999 56.2086 19.7441 56.8931 20.2015C57.5776 20.6589 58.1111 21.3091 58.4262 22.0697C58.7412 22.8304 58.8237 23.6674 58.663 24.4749C58.5024 25.2824 58.106 26.0241 57.5239 26.6063C56.9417 27.1885 56.2 27.585 55.3926 27.7456C54.5852 27.9062 53.7482 27.8238 52.9876 27.5087C52.227 27.1936 51.5769 26.6601 51.1196 25.9755C50.6622 25.2909 50.4181 24.4861 50.4181 23.6628C50.4181 22.5587 50.8566 21.4999 51.6372 20.7192C52.4178 19.9385 53.4766 19.4999 54.5805 19.4999ZM54.5805 16.3383C53.119 16.3258 51.6866 16.7478 50.4653 17.5507C49.2439 18.3537 48.2886 19.5014 47.7206 20.8483C47.1526 22.1951 46.9974 23.6803 47.2749 25.1155C47.5523 26.5507 48.2498 27.8711 49.2789 28.9091C50.308 29.9472 51.6222 30.6561 53.0548 30.9459C54.4874 31.2357 55.9738 31.0933 57.3254 30.5369C58.677 29.9804 59.8328 29.035 60.6462 27.8205C61.4595 26.606 61.8938 25.1772 61.8939 23.7155C61.8939 21.7747 61.1237 19.9133 59.7525 18.54C58.3813 17.1667 56.5211 16.3938 54.5805 16.391V16.3383Z" fill="#FFBD00"/>
</svg>
