<svg width="76" height="76" viewBox="0 0 76 76" fill="none" xmlns="http://www.w3.org/2000/svg">
<path d="M61.0185 17.4492L55.9897 19.7881L56.5744 14.1746L52.832 9.96441L58.4456 8.67797L61.0185 4L63.7083 8.67797L69.2049 9.96441L65.4625 14.1746L66.0473 19.7881L61.0185 17.4492Z" stroke="#FFBD00" stroke-width="2" stroke-miterlimit="10" stroke-linejoin="round"/>
<path d="M14.005 62.3576L9.91175 64.2288L10.3795 59.6678L7.33887 56.2762L11.8999 55.2237L14.005 51.3644L16.227 55.2237L20.6711 56.2762L17.6304 59.6678L18.0982 64.2288L14.005 62.3576Z" fill="#D1F2FE"/>
<path d="M69.3218 41.8916H66.2811C65.6963 39.3187 64.5269 36.9797 63.1235 34.8746L65.4624 32.5356C66.398 31.6 66.398 30.0797 65.4624 29.1441L62.8896 26.5712C61.954 25.6356 60.4336 25.6356 59.498 26.5712L56.9252 29.1441C54.8201 27.9746 52.598 27.039 50.1421 26.5712V22.7119C50.1421 21.4255 49.0896 20.3729 47.8031 20.3729H44.1777C42.8913 20.3729 41.8387 21.4255 41.8387 22.7119V26.9221C39.4997 27.5068 37.3947 28.4424 35.5235 29.6119L32.4828 26.5712C31.5472 25.6356 30.0269 25.6356 29.0913 26.5712L26.5184 29.1441C25.5828 30.0797 25.5828 31.6 26.5184 32.5356L29.5591 35.5763C28.2726 37.4475 27.337 39.6695 26.8692 41.8916H22.5421C21.2557 41.8916 20.2031 42.9441 20.2031 44.2306V47.856C20.2031 49.1424 21.2557 50.195 22.5421 50.195H26.5184C26.9862 52.6509 27.8048 54.8729 29.0913 56.978L26.5184 59.5509C25.5828 60.4865 25.5828 62.0068 26.5184 62.9424L29.0913 65.5153C30.0269 66.4509 31.5472 66.4509 32.4828 65.5153L34.8218 63.1763C36.9269 64.6967 39.2658 65.7492 41.8387 66.3339V69.4916C41.8387 70.778 42.8913 71.8306 44.1777 71.8306H47.8031C49.0896 71.8306 50.1421 70.778 50.1421 69.4916V66.8017C52.8319 66.3339 55.4048 65.2814 57.6269 63.878L59.498 65.7492C60.4336 66.6848 61.954 66.6848 62.8896 65.7492L65.4624 63.1763C66.398 62.2407 66.398 60.7204 65.4624 59.7848L63.5913 57.7967C65.1116 55.5746 66.0472 53.0017 66.515 50.3119H69.3218C70.6082 50.3119 71.6608 49.2594 71.6608 47.9729V44.3475C71.6608 42.9441 70.6082 41.8916 69.3218 41.8916Z" stroke="#0079F8" stroke-width="2" stroke-miterlimit="10"/>
<path d="M45.932 53.1186C49.8073 53.1186 52.9489 49.977 52.9489 46.1017C52.9489 42.2263 49.8073 39.0847 45.932 39.0847C42.0566 39.0847 38.915 42.2263 38.915 46.1017C38.915 49.977 42.0566 53.1186 45.932 53.1186Z" stroke="#0079F8" stroke-width="2" stroke-miterlimit="10"/>
<path d="M35.5233 38.5C34.003 40.6051 33.0674 43.2949 33.0674 46.1017C33.0674 53.2356 38.7979 58.9661 45.9318 58.9661C53.0657 58.9661 58.7962 53.2356 58.7962 46.1017C58.7962 38.9678 53.0657 33.2373 45.9318 33.2373C44.7623 33.2373 43.5928 33.3543 42.5403 33.7051" stroke="#FFBD00" stroke-width="2" stroke-miterlimit="10" stroke-linejoin="round"/>
<path d="M37.161 16.0457L38.9153 14.2915C39.617 13.5898 39.617 12.4203 38.9153 11.7186L37.0441 9.8474C36.3424 9.14571 35.1729 9.14571 34.4712 9.8474L32.4831 11.8355C30.9627 10.8999 29.2085 10.3152 27.4542 9.96435V6.92367C27.4542 5.98808 26.6356 5.16943 25.7 5.16943H23.0102C22.0746 5.16943 21.2559 5.98808 21.2559 6.92367V10.0813C19.5017 10.5491 17.8644 11.2508 16.461 12.1864L14.122 9.8474C13.4203 9.14571 12.2508 9.14571 11.5492 9.8474L9.67797 11.7186C8.97627 12.4203 8.97627 13.5898 9.67797 14.2915L12.0169 16.6305C11.0814 18.0338 10.3797 19.6711 10.0288 21.4254H6.75424C5.81864 21.4254 5 22.244 5 23.1796V25.8694C5 26.805 5.81864 27.6237 6.75424 27.6237H9.67797C10.0288 29.4949 10.6136 31.1321 11.5492 32.6525L9.67797 34.6406C8.97627 35.3423 8.97627 36.5118 9.67797 37.2135L11.5492 39.0847C12.2508 39.7864 13.4203 39.7864 14.122 39.0847L15.8763 37.3305C16.461 37.7983 17.1627 38.1491 17.8644 38.4999" stroke="#0079F8" stroke-width="2" stroke-miterlimit="10"/>
<path d="M28.5071 21.3085C27.5715 20.022 26.0511 19.2034 24.2969 19.2034C21.3732 19.2034 19.0342 21.5424 19.0342 24.4661C19.0342 25.7525 19.502 26.922 20.2037 27.7407" stroke="#0079F8" stroke-width="2" stroke-miterlimit="10"/>
</svg>
