<svg width="73" height="71" viewBox="0 0 73 71" fill="none" xmlns="http://www.w3.org/2000/svg">
<path d="M9.90112 41.71H49.4364" stroke="#0079F8" stroke-width="3" stroke-miterlimit="10"/>
<path d="M39.4342 15.0419C39.4281 14.6748 39.332 14.3148 39.1544 13.9936C38.9767 13.6723 38.7229 13.3996 38.4152 13.1993C38.1075 12.999 37.7554 12.8773 37.3897 12.8449C37.024 12.8124 36.656 12.8703 36.3178 13.0133C35.9797 13.1563 35.6819 13.3801 35.4504 13.6651C35.219 13.9501 35.0611 14.2875 34.9905 14.6478C34.9199 15.0081 34.9389 15.3802 35.0457 15.7314C35.1524 16.0827 35.3438 16.4023 35.603 16.6624" stroke="#FFC826" stroke-width="2" stroke-miterlimit="10"/>
<path d="M48.4277 69.2474C47.794 69.1901 47.2063 68.8925 46.7852 68.4155C46.3641 67.9385 46.1416 67.3184 46.1633 66.6825V61.6386H13.1743V66.6503C13.2006 66.9704 13.1625 67.2926 13.0622 67.5977C12.9619 67.9028 12.8015 68.1848 12.5904 68.4269C12.3793 68.669 12.1218 68.8663 11.8332 69.0072C11.5446 69.1482 11.2306 69.2298 10.9099 69.2474H8.48458C7.74909 69.2289 7.04047 68.9671 6.46959 68.5031C5.8987 68.039 5.49776 67.3987 5.32949 66.6825L5.15778 65.2874L4.77144 60.9947L4.57827 60.6621C3.17657 57.7867 2.44285 54.6317 2.43195 51.4329C2.43861 49.5714 2.98304 47.7515 3.99973 46.1922C5.01641 44.6329 6.46204 43.4006 8.16264 42.6437L9.85823 41.9354L9.98701 40.5403C10.1759 38.491 10.6156 36.4727 11.2963 34.5306C11.5752 33.821 12.0519 33.2064 12.6699 32.7598L12.8309 32.6525L13.0348 32.5559H13.1421L13.2387 32.5023C13.7337 32.3134 14.2389 32.1521 14.7519 32.0194C17.2523 31.3111 21.8455 30.474 29.701 30.474C42.6863 30.474 45.6697 32.2876 45.7985 32.3628L45.938 32.4593L46.0882 32.5237C46.9365 32.9439 47.5955 33.668 47.934 34.552C48.6857 36.4634 49.1592 38.4729 49.3399 40.5188L49.4687 41.9032L50.7457 42.4505L51.1106 42.6222C52.8177 43.3458 54.2753 44.5537 55.3033 46.0967C56.3313 47.6396 56.8847 49.45 56.895 51.3041V51.4221C56.9833 54.642 56.2443 57.8307 54.7486 60.6835L54.5447 61.0913L54.1369 65.942L54.0296 66.6074C53.8723 67.3493 53.4684 68.0162 52.8839 68.4994C52.2993 68.9827 51.5684 69.2538 50.8101 69.2688L48.4277 69.2474Z" stroke="#0079F8" stroke-width="3" stroke-miterlimit="10"/>
<path d="M10.8246 55.1675C12.8042 55.1675 14.409 53.5627 14.409 51.5831C14.409 49.6035 12.8042 47.9987 10.8246 47.9987C8.84501 47.9987 7.24023 49.6035 7.24023 51.5831C7.24023 53.5627 8.84501 55.1675 10.8246 55.1675Z" stroke="#FFC826" stroke-width="2" stroke-miterlimit="10"/>
<path d="M47.8372 55.1675C49.8168 55.1675 51.4215 53.5627 51.4215 51.5831C51.4215 49.6035 49.8168 47.9987 47.8372 47.9987C45.8576 47.9987 44.2528 49.6035 44.2528 51.5831C44.2528 53.5627 45.8576 55.1675 47.8372 55.1675Z" stroke="#FFC826" stroke-width="2" stroke-miterlimit="10"/>
<path d="M20.0637 50.8212C20.0637 50.8212 28.0802 55.4573 38.5864 50.51" stroke="#0079F8" stroke-width="3" stroke-miterlimit="10"/>
<path d="M33.4468 23.756H65.0514" stroke="#0079F8" stroke-width="2.5" stroke-miterlimit="10"/>
<path d="M62.701 34.5198C64.2835 34.5198 65.5664 33.237 65.5664 31.6545C65.5664 30.072 64.2835 28.7891 62.701 28.7891C61.1186 28.7891 59.8357 30.072 59.8357 31.6545C59.8357 33.237 61.1186 34.5198 62.701 34.5198Z" stroke="#FFC826" stroke-width="2" stroke-miterlimit="10"/>
<path d="M15.5247 8.87122H40.2075" stroke="#0079F8" stroke-width="3" stroke-miterlimit="10"/>
<path d="M34.5948 17.9717C34.8181 17.426 35.1899 16.9538 35.6679 16.6087L35.786 16.5121L35.9577 16.437H36.0328H36.1187C36.519 16.2521 36.9313 16.0944 37.3528 15.9648C39.8118 15.342 42.3299 14.9823 44.8649 14.8917V14.8917C44.846 13.7432 44.4943 12.625 43.8523 11.6725C43.2104 10.72 42.3058 9.97434 41.2484 9.52586L41.0123 9.41854L40.2181 9.07513L40.1323 8.07709C40.0139 6.79739 39.7177 5.54043 39.2523 4.34248C39.038 3.80158 38.6281 3.36104 38.104 3.10835H38.0074L37.9216 3.04396C37.8465 3.04396 35.9792 1.87421 27.866 1.87421C24.7288 1.77664 21.5926 2.09784 18.5403 2.82932C18.2175 2.90708 17.9016 3.01117 17.5959 3.14054H17.5315H17.4671L17.3383 3.20493L17.2417 3.26932C16.8756 3.54444 16.5932 3.91602 16.4261 4.34248C15.9998 5.54911 15.7223 6.80325 15.5998 8.07709L15.5247 8.94635L14.4515 9.38635C13.3895 9.8602 12.4872 10.631 11.8531 11.6058C11.2191 12.5807 10.8804 13.718 10.8779 14.8809C10.8759 16.8724 11.3234 18.8387 12.1871 20.6331L12.3052 20.8692L12.5413 23.5628L12.6593 24.4106C12.7633 24.858 13.0122 25.2584 13.3674 25.5496C13.7226 25.8407 14.1642 26.0062 14.6232 26.0204H16.1471C16.346 26.0081 16.5404 25.9567 16.7193 25.869C16.8983 25.7814 17.0581 25.6593 17.1897 25.5097C17.3214 25.3602 17.4221 25.1861 17.4863 24.9975C17.5505 24.8089 17.5768 24.6094 17.5637 24.4106V21.3092H33.7362C33.9313 20.1752 34.2185 19.059 34.5948 17.9717V17.9717Z" stroke="#0079F8" stroke-width="2.5" stroke-miterlimit="10"/>
<path d="M15.5247 8.87122H40.2075" stroke="#0079F8" stroke-width="2.5" stroke-miterlimit="10"/>
<path d="M17.1661 17.2849C18.4048 17.2849 19.409 16.2807 19.409 15.042C19.409 13.8032 18.4048 12.799 17.1661 12.799C15.9273 12.799 14.9232 13.8032 14.9232 15.042C14.9232 16.2807 15.9273 17.2849 17.1661 17.2849Z" stroke="#FFC826" stroke-width="2" stroke-miterlimit="10"/>
<path d="M70.9965 31.3862C70.9793 29.8999 70.5283 28.4511 69.699 27.2176C68.8696 25.9841 67.6981 25.0197 66.3283 24.4428L66.0278 24.3033L65.0083 23.874L64.9117 22.8009C64.7831 21.166 64.4218 19.558 63.8385 18.0253C63.5677 17.3207 63.0433 16.7427 62.3683 16.4048L62.2395 16.3512L62.1322 16.276C62.0356 16.2117 59.6532 14.7629 49.2543 14.7629C45.2513 14.6307 41.2486 15.0349 37.3529 15.9648C36.9441 16.0712 36.5426 16.2039 36.1509 16.3619H36.0651H35.99L35.8183 16.437L35.7002 16.5336C35.2222 16.8787 34.8504 17.3509 34.6271 17.8965C34.0719 19.4486 33.7114 21.0635 33.5539 22.7043L33.4573 23.7775L32.0944 24.3462C30.8976 24.8797 29.8565 25.7095 29.0697 26.7574C28.2829 27.8052 27.7763 29.0364 27.5978 30.3345C28.2632 30.3345 28.9786 30.3345 29.7442 30.3345C42.7294 30.3345 45.7128 32.1481 45.8416 32.2232L45.9811 32.3198L46.1314 32.3842C46.9796 32.8044 47.6386 33.5285 47.9772 34.4125C48.6288 36.0824 49.0686 37.8274 49.2865 39.6066H62.4434V43.6095C62.4247 44.1181 62.6008 44.6146 62.936 44.9976C63.2711 45.3805 63.7398 45.6211 64.2464 45.67H66.1888C66.7919 45.6488 67.3704 45.4258 67.8316 45.0366C68.2928 44.6474 68.6099 44.1146 68.7322 43.5236L68.818 42.9978L69.14 39.1129L69.3117 38.791C70.4941 36.5062 71.074 33.9576 70.9965 31.3862Z" stroke="#0079F8" stroke-width="2.5" stroke-miterlimit="10"/>
</svg>
